<?xml version="1.0" standalone="no"?>
<!DOCTYPE svg PUBLIC "-//W3C//DTD SVG 20010904//EN"
 "http://www.w3.org/TR/2001/REC-SVG-20010904/DTD/svg10.dtd">
<svg version="1.0" xmlns="http://www.w3.org/2000/svg"
 width="133.000000pt" height="85.000000pt" viewBox="0 0 133.000000 85.000000"
 preserveAspectRatio="xMidYMid meet">

<g transform="translate(0.000000,85.000000) scale(0.100000,-0.100000)"
fill="#000000" stroke="none">
<path d="M30 230 c0 -5 18 -10 40 -10 l40 0 0 -85 c0 -68 3 -85 15 -85 11 0
15 18 17 83 l3 82 38 3 c20 2 37 7 37 13 0 5 -42 9 -95 9 -57 0 -95 -4 -95
-10z"/>
<path d="M410 221 c0 -11 -6 -22 -12 -24 -10 -4 -10 -7 -1 -14 6 -5 13 -31 15
-58 3 -42 7 -52 30 -65 22 -12 30 -12 40 -2 10 10 8 14 -10 19 -41 10 -45 96
-4 101 26 4 20 22 -9 22 -12 0 -19 7 -19 20 0 11 -7 20 -15 20 -8 0 -15 -9
-15 -19z"/>
<path d="M510 144 c0 -72 3 -95 13 -92 7 3 13 28 15 66 3 66 11 74 53 52 15
-9 19 -22 19 -65 0 -42 3 -55 15 -55 12 0 15 13 15 59 0 70 -15 91 -66 91 -27
0 -34 4 -34 20 0 11 -7 20 -15 20 -12 0 -15 -17 -15 -96z"/>
<path d="M734 219 c-14 -16 -19 -36 -18 -75 0 -72 16 -87 97 -92 73 -5 90 7
85 60 -4 45 -32 45 -36 0 -3 -31 -5 -32 -47 -32 -50 0 -65 16 -65 73 0 48 25
67 88 67 29 0 52 5 52 10 0 6 -29 10 -68 10 -57 0 -72 -4 -88 -21z"/>
<path d="M1110 144 c0 -72 3 -95 13 -92 8 3 13 34 15 96 2 77 0 92 -13 92 -12
0 -15 -16 -15 -96z"/>
<path d="M1270 220 c0 -16 -7 -20 -33 -20 -52 0 -72 -21 -72 -75 0 -59 21 -77
85 -73 l45 3 3 93 c2 77 0 92 -13 92 -8 0 -15 -9 -15 -20z m-2 -93 l3 -48 -33
3 c-29 3 -33 7 -36 36 -4 40 13 64 42 60 17 -2 22 -11 24 -51z"/>
<path d="M240 125 c0 -60 3 -75 15 -75 12 0 15 15 15 75 0 60 -3 75 -15 75
-12 0 -15 -15 -15 -75z"/>
<path d="M318 189 c-24 -14 -27 -139 -3 -139 12 0 15 13 15 55 0 49 3 57 25
67 14 6 25 15 25 20 0 11 -41 10 -62 -3z"/>
<path d="M939 179 c-17 -17 -20 -29 -16 -62 7 -49 28 -67 79 -67 49 0 78 28
78 75 0 48 -29 75 -80 75 -27 0 -47 -7 -61 -21z m92 -9 c29 -16 26 -77 -5 -91
-36 -17 -66 3 -66 44 0 51 28 69 71 47z"/>
</g>
</svg>
