<?xml version="1.0" standalone="no"?>
<!DOCTYPE svg PUBLIC "-//W3C//DTD SVG 20010904//EN"
 "http://www.w3.org/TR/2001/REC-SVG-20010904/DTD/svg10.dtd">
<svg version="1.0" xmlns="http://www.w3.org/2000/svg"
 width="1000.000000pt" height="1080.000000pt" viewBox="0 0 1000.000000 1080.000000"
 preserveAspectRatio="xMidYMid meet">

<g transform="translate(0.000000,1080.000000) scale(0.100000,-0.100000)"
fill="#000000" stroke="none">
<path d="M4690 9381 c-54 -5 -61 -8 -40 -15 24 -8 24 -9 3 -13 -12 -2 -31 1
-43 7 -22 12 -134 4 -126 -9 2 -3 -16 -4 -41 -2 -45 3 -46 3 -39 -22 3 -14 2
-27 -3 -29 -5 -2 -7 -15 -4 -30 5 -25 10 -28 44 -28 32 0 39 -3 39 -20 0 -13
7 -20 20 -20 13 0 20 -7 20 -20 0 -11 5 -20 10 -20 6 0 10 9 10 20 0 17 7 20
50 20 43 0 50 3 50 20 0 16 -7 20 -30 20 -23 0 -30 4 -30 20 0 18 7 20 60 20
l60 0 0 31 c0 17 6 37 14 45 17 16 56 19 56 4 0 -5 19 -10 43 -9 35 0 38 2 20
9 -13 5 -23 11 -23 12 0 2 25 4 55 4 57 1 59 0 55 -48 -1 -23 3 -28 20 -28 19
0 22 4 18 30 l-5 30 66 2 c95 3 102 2 149 -6 27 -5 42 -4 42 2 0 6 -10 13 -22
15 -13 2 -7 3 12 1 19 -2 42 1 50 6 10 6 -31 9 -120 8 -92 -1 -121 -3 -90 -8
l45 -7 -52 -1 c-30 -1 -53 2 -53 8 0 11 -174 11 -290 1z m-90 -46 c0 -8 -4
-15 -10 -15 -5 0 -10 7 -10 15 0 8 5 15 10 15 6 0 10 -7 10 -15z m-112 -12
c-10 -2 -28 -2 -40 0 -13 2 -5 4 17 4 22 1 32 -1 23 -4z m192 -13 c0 -5 -9
-10 -20 -10 -11 0 -20 5 -20 10 0 6 9 10 20 10 11 0 20 -4 20 -10z m-140 -28
c0 -13 -9 -19 -36 -20 -57 -4 -32 29 29 37 4 1 7 -7 7 -17z"/>
<path d="M5266 9371 c-18 -7 -18 -8 5 -14 37 -10 97 -9 80 2 -11 7 -10 10 5
14 10 2 -1 5 -26 5 -25 0 -54 -3 -64 -7z m47 -8 c-7 -2 -19 -2 -25 0 -7 3 -2
5 12 5 14 0 19 -2 13 -5z"/>
<path d="M5380 9360 c0 -6 32 -9 78 -9 71 1 73 2 32 10 -64 11 -110 11 -110
-1z"/>
<path d="M5527 9343 c-9 -2 -15 -9 -11 -14 4 -6 10 -7 17 0 7 5 26 11 42 14
l30 4 -30 0 c-16 1 -38 -1 -48 -4z"/>
<path d="M5618 9333 c6 -2 18 -2 25 0 6 3 1 5 -13 5 -14 0 -19 -2 -12 -5z"/>
<path d="M4275 9320 c-16 -4 -67 -15 -112 -25 -67 -15 -81 -21 -80 -36 1 -11
9 -19 19 -19 11 0 18 -7 18 -20 0 -19 7 -20 100 -20 l100 0 0 40 c0 38 6 45
35 41 6 -1 1 6 -9 14 -20 15 -20 15 0 15 16 0 17 2 4 10 -17 11 -33 11 -75 0z"/>
<path d="M5573 9322 c-6 -4 -13 -16 -15 -27 -5 -30 41 -32 71 -3 26 23 12 40
-14 18 -12 -10 -15 -9 -15 4 0 17 -8 20 -27 8z"/>
<path d="M5660 9316 c0 -13 4 -15 18 -8 10 5 39 4 72 -4 31 -6 44 -12 30 -13
-20 -1 -22 -3 -10 -11 10 -6 11 -10 3 -10 -8 0 -13 -14 -13 -35 l0 -35 63 0
c37 0 69 -5 76 -12 11 -11 14 -10 18 0 3 8 15 11 38 6 31 -5 32 -4 28 20 -3
15 -1 26 6 26 6 0 12 -4 12 -10 1 -5 2 -15 3 -22 0 -6 6 -13 12 -15 7 -2 10 6
6 23 -4 24 -3 25 17 14 13 -6 25 -9 28 -6 6 6 -42 27 -55 24 -4 -1 -14 1 -22
4 -57 22 -133 39 -146 34 -8 -3 -13 -2 -10 3 5 7 -45 21 -136 37 -31 5 -38 3
-38 -10z"/>
<path d="M3990 9250 c-30 -10 -50 -19 -45 -19 6 -1 3 -6 -5 -11 -19 -12 -33
-13 -25 0 6 10 -19 3 -145 -43 -47 -17 -87 -35 -88 -39 -2 -5 -7 -6 -12 -3 -5
3 -14 -1 -22 -8 -7 -7 -16 -14 -20 -15 -5 -1 -9 -2 -10 -3 -2 0 -11 -2 -22 -4
-32 -6 -76 -27 -76 -36 0 -9 47 6 66 22 8 7 14 6 17 -3 4 -10 8 -10 17 2 9 11
13 12 17 3 3 -9 26 -13 64 -13 52 0 59 2 59 20 0 11 5 20 10 20 6 0 10 -18 10
-40 0 -38 2 -40 29 -40 27 0 30 3 33 37 2 27 8 39 21 41 14 3 17 -4 17 -37 0
-23 5 -41 10 -41 6 0 10 16 10 36 0 45 19 64 64 64 31 0 36 3 36 24 0 13 -6
27 -12 29 -7 3 8 3 35 0 31 -4 47 -2 47 5 0 6 7 9 15 6 8 -4 15 -1 15 6 0 6
-9 14 -20 17 -11 3 -19 12 -18 21 4 22 -11 23 -72 2z m-133 -87 c0 -17 -14
-32 -28 -33 -3 0 -16 9 -28 19 l-22 19 23 5 c45 9 55 7 55 -10z m-113 -18
c-10 -8 -23 -14 -29 -14 -5 0 -1 6 9 14 11 8 24 15 30 15 5 0 1 -7 -10 -15z"/>
<path d="M4760 9220 c0 -13 7 -20 20 -20 13 0 20 7 20 20 0 13 -7 20 -20 20
-13 0 -20 -7 -20 -20z"/>
<path d="M6067 9215 c-16 -12 -16 -13 7 -17 14 -3 23 -1 20 3 -3 5 2 9 10 9 9
0 15 -3 15 -7 -4 -27 3 -43 20 -43 11 0 23 5 26 10 3 6 12 10 18 10 7 0 6 -4
-3 -10 -8 -5 -10 -10 -4 -10 5 0 15 5 22 12 9 9 12 9 12 -1 0 -7 4 -10 9 -7 5
3 26 -1 46 -10 33 -13 35 -17 20 -28 -13 -9 -15 -20 -10 -49 l7 -38 77 2 c42
0 81 0 86 -2 6 -2 12 1 15 6 3 6 -13 11 -35 13 -38 3 -55 15 -55 37 1 6 7 2
14 -8 11 -14 19 -16 33 -9 10 5 25 7 33 5 9 -3 8 0 -3 7 -14 9 -22 8 -34 -2
-15 -11 -16 -11 -10 5 4 10 3 16 -2 12 -5 -3 -11 0 -13 6 -2 6 -15 12 -30 12
-14 1 -25 5 -23 8 4 5 -152 67 -185 73 -13 3 -45 14 -60 22 -3 1 -13 -4 -23
-11z"/>
<path d="M6150 9136 c0 -2 7 -6 15 -10 8 -3 15 -1 15 4 0 6 -7 10 -15 10 -8 0
-15 -2 -15 -4z"/>
<path d="M6470 9070 c0 -14 43 -40 67 -40 17 0 21 -4 17 -17 -5 -15 -4 -15 4
-4 9 12 13 13 27 1 13 -10 13 -15 3 -22 -8 -4 0 -5 19 -2 26 5 31 3 30 -12 -2
-15 6 -20 36 -22 20 -2 37 -7 37 -12 0 -5 6 -7 13 -4 7 2 21 -2 32 -10 19 -13
18 -14 -7 -9 -14 3 -29 0 -33 -6 -3 -6 -3 -11 2 -10 22 4 35 -2 30 -14 -3 -8
5 -14 21 -15 34 -3 36 -6 20 -31 -9 -15 -10 -26 -2 -38 16 -26 33 -27 43 -1 6
12 10 17 10 9 1 -11 5 -10 15 4 11 16 17 17 29 7 12 -10 16 -10 20 0 3 10 10
8 26 -6 11 -11 21 -14 21 -8 0 17 -100 74 -139 78 -37 5 -48 10 -39 20 4 3 17
0 30 -6 12 -7 19 -8 13 -2 -20 21 -281 155 -302 155 -13 0 -20 3 -18 7 3 4 -2
10 -10 14 -8 3 -15 1 -15 -4z m201 -108 c-7 -2 -18 1 -23 6 -8 8 -4 9 13 5 13
-4 18 -8 10 -11z"/>
<path d="M3395 9014 c-61 -31 -114 -62 -118 -70 -5 -8 -13 -12 -18 -8 -6 3
-18 -1 -27 -9 -9 -7 -25 -17 -35 -20 -44 -16 -178 -111 -173 -123 3 -7 0 -16
-6 -20 -6 -4 -8 -3 -4 4 3 6 2 13 -2 16 -13 8 -89 -51 -95 -73 -2 -10 -15 -24
-28 -31 -24 -11 -24 -11 1 9 14 11 22 22 19 25 -3 3 -15 -3 -27 -14 -12 -11
-24 -20 -27 -20 -6 0 -135 -102 -135 -107 0 -2 7 -3 16 -3 9 0 12 5 8 13 -4 6
-4 9 1 5 4 -4 15 -2 23 5 13 9 14 9 8 0 -4 -8 -2 -13 5 -13 26 0 -1 -12 -38
-17 -21 -3 -41 -10 -44 -15 -3 -5 -10 -9 -13 -8 -4 1 -37 -24 -72 -55 -60 -53
-75 -81 -36 -69 14 5 15 4 2 -5 -12 -9 -9 -10 15 -7 42 7 59 -6 51 -38 -5 -22
-3 -26 14 -26 11 0 20 5 20 10 0 6 -4 10 -10 10 -5 0 -10 8 -10 18 0 22 -40
58 -49 44 -4 -7 -12 -6 -24 3 -16 11 -16 13 -2 19 9 3 13 2 10 -4 -3 -6 -2
-10 4 -10 5 0 11 6 13 12 3 9 10 8 22 -5 17 -17 19 -17 37 4 23 27 23 28 3 50
-20 23 -11 37 21 34 14 -2 28 3 33 10 4 8 21 15 37 18 31 4 41 29 22 54 -6 9
-1 16 17 24 14 7 26 16 26 21 0 4 5 8 11 8 5 0 7 -5 3 -12 -4 -7 -3 -8 5 -4 6
4 20 2 29 -6 15 -12 16 -11 3 5 -17 22 3 24 25 2 15 -14 48 -10 39 5 -3 5 5
16 17 25 15 12 19 19 11 22 -7 3 -13 9 -13 14 0 4 7 6 16 2 14 -5 15 -3 5 15
-12 23 -2 35 22 26 8 -3 18 -1 22 5 9 16 25 13 25 -4 0 -8 -7 -15 -16 -15 -9
0 -14 -5 -12 -11 2 -6 7 -10 11 -10 4 1 21 1 37 1 28 0 30 2 30 41 l0 41 53
-4 c43 -2 52 0 51 13 -1 11 5 15 17 12 15 -4 19 -15 19 -54 0 -27 5 -49 10
-49 6 0 10 32 10 75 0 43 4 75 10 75 6 0 10 8 10 18 0 10 -3 13 -8 6 -11 -17
-47 -26 -78 -18 l-27 7 39 19 c22 11 56 20 77 19 33 0 37 3 37 25 0 13 5 24
10 24 6 0 10 -4 10 -10 0 -5 5 -10 10 -10 6 0 9 3 9 8 -3 20 3 32 21 42 17 9
24 6 44 -15 28 -30 56 -33 56 -5 0 11 -6 20 -14 20 -8 0 -16 7 -20 15 -4 10 1
15 14 15 11 0 20 5 20 10 0 6 10 8 23 6 48 -9 57 -17 57 -52 0 -19 5 -34 10
-34 6 0 10 16 10 36 0 31 3 35 20 29 11 -4 20 -2 20 4 0 6 -13 11 -30 11 -16
0 -30 5 -30 11 0 5 -8 9 -17 7 -10 -1 -23 0 -28 4 -6 4 -60 -18 -120 -48z m45
2 c0 -11 -19 -15 -25 -6 -3 5 1 10 9 10 9 0 16 -2 16 -4z m-300 -170 c0 -2 -7
-7 -16 -10 -8 -3 -12 -2 -9 4 6 10 25 14 25 6z m-60 -46 c0 -5 -7 -7 -15 -4
-8 4 -15 1 -15 -5 0 -6 -5 -11 -11 -11 -8 0 -8 5 1 15 14 17 40 20 40 5z"/>
<path d="M3640 8900 c0 -13 7 -20 20 -20 13 0 20 7 20 20 0 13 -7 20 -20 20
-13 0 -20 -7 -20 -20z"/>
<path d="M3300 8864 c0 -20 24 -44 44 -44 11 0 16 9 16 30 0 27 -3 30 -30 30
-21 0 -30 -5 -30 -16z"/>
<path d="M6963 8782 c-1 -25 11 -41 30 -42 5 0 6 4 2 9 -3 5 -1 12 5 16 6 3
10 -3 10 -15 0 -19 -4 -21 -25 -16 -18 5 -25 2 -25 -8 0 -14 45 -17 66 -4 6 4
22 5 35 3 21 -4 20 -1 -11 25 -19 16 -46 35 -60 43 -24 15 -25 14 -27 -11z"/>
<path d="M3320 8740 c0 -13 7 -20 20 -20 13 0 20 7 20 20 0 13 -7 20 -20 20
-13 0 -20 -7 -20 -20z"/>
<path d="M7090 8706 c0 -8 -5 -16 -12 -18 -9 -3 -9 -6 0 -12 7 -4 12 -2 12 3
0 23 26 9 37 -19 6 -17 15 -30 20 -29 27 5 43 -3 43 -21 0 -11 5 -20 10 -20 6
0 9 -3 9 -7 -4 -22 3 -33 19 -33 15 1 15 2 -2 15 -13 10 -15 15 -6 15 9 0 7 5
-6 14 -10 8 -16 18 -11 22 8 9 37 -27 31 -38 -3 -5 2 -9 10 -9 9 -1 22 -2 28
-3 9 -1 12 -14 10 -41 -4 -35 -2 -38 12 -26 18 15 22 36 4 25 -7 -4 -8 -3 -4
4 9 15 26 15 26 1 0 -7 8 -18 18 -25 12 -10 13 -13 3 -14 -19 0 6 -30 26 -30
9 0 11 -5 7 -12 -18 -29 -11 -44 21 -43 18 1 37 5 44 9 8 5 10 0 7 -18 -3 -14
0 -29 6 -32 7 -4 8 -2 4 4 -11 19 9 14 38 -9 19 -15 26 -17 26 -7 0 21 -20 37
-38 31 -9 -4 -13 -2 -9 4 7 12 -96 116 -106 107 -4 -4 -7 -2 -7 3 0 16 -155
143 -173 143 -9 0 -19 5 -23 12 -5 7 -3 8 7 3 12 -8 12 -6 0 9 -11 13 -16 14
-22 4 -7 -10 -9 -9 -9 3 0 9 -11 24 -25 33 -21 14 -25 14 -25 2z m305 -277
c11 -16 1 -19 -13 -3 -7 8 -8 14 -3 14 5 0 13 -5 16 -11z"/>
<path d="M7020 8650 c0 -5 5 -10 10 -10 6 0 10 5 10 10 0 6 -4 10 -10 10 -5 0
-10 -4 -10 -10z"/>
<path d="M3000 8620 c0 -13 7 -20 20 -20 13 0 20 -7 20 -20 0 -13 7 -20 20
-20 13 0 20 7 20 20 0 13 -7 20 -20 20 -13 0 -20 7 -20 20 0 13 -7 20 -20 20
-13 0 -20 -7 -20 -20z"/>
<path d="M2966 8621 c-4 -7 -5 -15 -2 -18 9 -9 19 4 14 18 -4 11 -6 11 -12 0z"/>
<path d="M2720 8497 c0 -5 9 -11 20 -14 16 -4 20 -14 20 -44 0 -39 0 -39 40
-39 38 0 40 -2 40 -30 0 -23 4 -30 20 -30 17 0 20 7 20 50 0 49 -1 50 -30 50
-23 0 -30 4 -30 20 0 13 -7 20 -20 20 -11 0 -20 4 -20 9 0 5 -13 11 -30 13
-16 3 -30 0 -30 -5z"/>
<path d="M2521 8392 c-6 -12 -5 -23 5 -37 11 -15 14 -16 14 -3 0 9 7 18 15 22
15 6 20 -5 8 -18 -10 -9 -3 -109 8 -120 13 -14 11 -64 -3 -69 -8 -4 -9 -6 -2
-6 23 -2 35 25 24 53 -5 15 -10 60 -10 100 0 71 -10 96 -37 96 -7 0 -17 -8
-22 -18z"/>
<path d="M2493 8378 c-4 -7 -8 -19 -9 -26 -5 -32 -15 -44 -30 -38 -21 8 -44
-11 -44 -36 0 -10 -4 -17 -8 -14 -5 3 -26 -12 -47 -34 -27 -28 -36 -44 -31
-57 7 -16 9 -16 27 7 11 14 24 35 29 47 5 13 15 20 23 17 8 -3 18 5 25 20 6
14 18 23 29 23 9 -1 18 3 18 8 0 6 6 20 14 33 21 38 25 82 4 50z m-34 -77 c9
-6 6 -8 -13 -8 -14 0 -23 3 -20 8 7 11 15 11 33 0z m-111 -111 c-7 -10 -14
-17 -17 -15 -4 4 18 35 25 35 2 0 -1 -9 -8 -20z"/>
<path d="M2455 8340 c-3 -5 -1 -10 4 -10 6 0 11 5 11 10 0 6 -2 10 -4 10 -3 0
-8 -4 -11 -10z"/>
<path d="M7533 8327 c-17 -23 -9 -42 17 -39 34 4 36 10 13 32 -16 14 -23 16
-30 7z m25 -16 c11 -6 10 -10 -4 -15 -9 -3 -19 -4 -22 -1 -3 3 1 5 9 5 11 0
11 2 -1 10 -8 5 -10 10 -5 10 6 0 16 -4 23 -9z"/>
<path d="M2760 8199 c0 -109 2 -120 18 -117 14 3 18 16 20 72 2 39 -2 74 -8
80 -5 5 -10 27 -10 48 0 21 -4 38 -10 38 -6 0 -10 -47 -10 -121z"/>
<path d="M2660 8180 l0 -100 30 0 30 0 0 100 0 100 -30 0 -30 0 0 -100z"/>
<path d="M7564 8269 c-3 -5 0 -8 7 -7 6 2 14 -3 17 -11 3 -9 0 -11 -8 -6 -9 5
-11 4 -6 -3 4 -7 17 -12 28 -12 12 0 18 -3 15 -6 -4 -4 2 -15 13 -24 13 -11
18 -24 14 -36 -3 -11 -2 -15 3 -9 4 6 15 11 25 13 12 2 16 -4 14 -22 -2 -17 1
-23 10 -19 16 6 19 -23 4 -32 -8 -5 -7 -11 1 -21 17 -21 32 -5 26 30 l-6 31
17 -35 c18 -36 40 -59 57 -60 6 0 3 5 -5 10 -8 5 -11 10 -7 10 14 0 -65 90
-79 90 -7 0 -11 6 -8 14 7 19 -16 32 -28 15 -7 -10 -8 -9 -4 7 10 35 -82 111
-100 83z m90 -65 c3 -8 2 -12 -4 -9 -6 3 -10 10 -10 16 0 14 7 11 14 -7z"/>
<path d="M2448 8229 c-6 -4 16 -9 50 -11 48 -2 58 0 50 10 -11 13 -79 14 -100
1z"/>
<path d="M7515 8230 c3 -5 10 -10 16 -10 5 0 9 5 9 10 0 6 -7 10 -16 10 -8 0
-12 -4 -9 -10z"/>
<path d="M2620 8190 c0 -5 5 -10 10 -10 6 0 10 5 10 10 0 6 -4 10 -10 10 -5 0
-10 -4 -10 -10z"/>
<path d="M2295 8170 c-3 -5 -8 -20 -10 -32 -3 -12 -9 -26 -15 -32 -8 -8 -9 -5
-5 9 8 23 8 23 -60 -61 -22 -27 -43 -50 -46 -52 -4 -2 -5 -13 -2 -25 3 -15 2
-18 -5 -9 -7 10 -11 10 -22 -3 -7 -9 -9 -15 -4 -14 26 5 43 -2 38 -16 -5 -12
3 -15 35 -15 39 0 41 2 41 29 0 18 -6 31 -17 35 -13 5 -14 9 -5 15 10 6 10 15
3 37 -10 29 -10 29 5 7 9 -13 25 -23 35 -23 11 0 19 -4 19 -10 0 -5 18 -10 40
-10 l40 0 0 -40 0 -40 50 0 50 0 0 40 0 40 -50 0 -50 0 0 78 c0 75 -1 78 -23
77 -13 -1 -29 -5 -36 -9 -10 -7 -11 -4 -2 13 12 21 8 30 -4 11z m32 -42 c0 -7
4 -21 8 -30 9 -22 -17 -25 -34 -4 -9 11 -8 18 4 30 20 19 22 20 22 4z m-72
-57 c-8 -14 -25 -14 -25 0 0 5 5 7 10 4 6 -3 10 -1 10 6 0 7 3 10 6 6 3 -3 3
-10 -1 -16z m-55 -57 c0 -8 -5 -12 -10 -9 -6 4 -8 11 -5 16 9 14 15 11 15 -7z"/>
<path d="M2400 8150 c0 -5 9 -10 20 -10 16 0 20 -7 20 -30 0 -16 5 -30 10 -30
6 0 10 18 10 40 0 38 -2 40 -30 40 -16 0 -30 -4 -30 -10z"/>
<path d="M2520 8080 c0 -53 2 -60 20 -60 16 0 20 7 20 30 0 17 -4 30 -10 30
-5 0 -10 14 -10 30 0 17 -4 30 -10 30 -6 0 -10 -27 -10 -60z"/>
<path d="M4560 8090 c0 -5 5 -10 10 -10 6 0 10 5 10 10 0 6 -4 10 -10 10 -5 0
-10 -4 -10 -10z"/>
<path d="M5415 8091 c-3 -7 3 -11 14 -11 12 0 21 -4 21 -10 0 -5 7 -10 15 -10
21 0 19 16 -2 24 -10 3 -23 8 -30 12 -6 3 -14 0 -18 -5z"/>
<path d="M4640 8073 c0 -6 4 -13 10 -15 18 -6 -5 -26 -40 -32 -23 -5 -30 -4
-21 2 11 8 9 11 -8 17 -12 3 -19 11 -16 16 3 5 -1 6 -9 3 -12 -4 -13 -11 -6
-24 11 -20 4 -30 -21 -30 -22 0 -73 -26 -62 -32 4 -3 2 -3 -5 -1 -8 1 -22 3
-33 3 -13 0 -17 5 -12 18 5 14 4 15 -8 4 -12 -11 -11 -16 9 -32 l22 -18 -29
-7 c-16 -3 -35 -13 -42 -21 -6 -8 -17 -14 -23 -14 -6 0 -4 5 4 11 12 8 11 9
-5 6 -11 -2 -19 -8 -18 -13 1 -5 -12 -11 -28 -12 -16 -1 -29 3 -29 8 0 6 6 8
13 5 6 -4 3 1 -7 9 -26 21 -31 20 -45 -10 -14 -32 0 -54 32 -48 13 3 16 1 7
-3 -8 -3 -21 -13 -28 -22 -8 -9 -11 -10 -7 -3 8 16 -27 16 -43 0 -9 -9 -12 -9
-12 0 0 7 -4 12 -10 12 -5 0 -10 -14 -10 -30 0 -20 -9 -40 -25 -56 -14 -14
-25 -20 -25 -13 0 6 -7 9 -15 5 -8 -3 -15 -1 -15 5 0 6 -4 7 -10 4 -5 -3 -10
-1 -10 4 0 26 -16 8 -18 -20 -2 -31 -2 -31 30 -25 32 6 32 6 11 -9 -12 -9 -29
-26 -38 -38 -15 -21 -15 -21 -9 11 5 27 4 32 -12 32 -22 0 -57 -20 -36 -20 6
0 12 -4 12 -10 0 -5 -7 -10 -15 -10 -8 0 -15 -5 -15 -11 0 -6 9 -9 19 -6 11 3
22 -1 25 -9 7 -19 -12 -28 -30 -13 -13 11 -14 9 -9 -14 6 -21 4 -27 -9 -27 -9
0 -16 -7 -16 -15 0 -8 -5 -15 -11 -15 -5 0 -7 5 -4 10 3 6 -1 10 -9 10 -11 0
-16 -9 -16 -30 0 -27 -3 -30 -30 -30 -29 0 -40 -13 -21 -24 5 -3 11 -15 14
-26 4 -16 2 -19 -7 -11 -7 6 -16 8 -19 4 -4 -3 -7 -1 -7 5 0 7 5 12 11 12 5 0
7 5 3 11 -10 16 -28 -6 -20 -26 3 -9 10 -14 15 -11 5 3 11 -1 15 -9 3 -8 0
-17 -6 -21 -7 -5 -8 -2 -3 6 5 9 4 11 -4 6 -6 -4 -9 -16 -6 -26 3 -11 0 -22
-8 -27 -8 -4 -17 -17 -19 -28 -3 -17 -5 -15 -10 7 -3 15 -1 25 3 22 5 -3 9 11
9 30 0 41 -16 48 -29 12 -5 -13 -19 -26 -30 -29 -29 -7 -26 -27 3 -27 20 0 23
-4 19 -21 -3 -11 -12 -23 -19 -26 -8 -3 -14 -19 -14 -35 0 -24 3 -29 18 -24
16 6 16 5 0 -8 -10 -7 -18 -23 -18 -35 0 -20 -4 -22 -55 -25 -16 -1 -20 -8
-20 -39 0 -21 3 -43 7 -50 6 -9 8 -9 8 1 0 7 5 10 10 7 6 -3 10 -13 10 -21 0
-8 -4 -13 -9 -10 -5 3 -11 -4 -14 -17 -2 -12 -8 -31 -12 -41 -6 -13 -5 -17 2
-13 7 5 11 -6 11 -29 0 -25 -3 -33 -9 -23 -5 9 -9 -19 -10 -76 -1 -49 -4 -78
-6 -62 -6 37 -19 34 -27 -5 -16 -79 -17 -96 -7 -102 6 -4 11 -16 11 -27 0 -10
7 -19 15 -19 12 0 15 -15 16 -72 1 -40 1 -79 0 -87 -2 -8 2 -10 10 -5 9 5 10
2 4 -12 -12 -29 -14 -127 -3 -116 6 6 11 22 11 36 2 32 13 34 20 4 5 -16 -1
-30 -18 -48 -26 -27 -32 -54 -15 -65 6 -3 10 -2 10 3 0 5 9 19 20 31 l19 23
-6 -39 c-3 -21 -12 -45 -19 -54 -8 -8 -14 -24 -14 -34 0 -15 6 -17 35 -12 23
4 35 2 35 -6 0 -8 3 -7 9 2 19 30 35 -83 36 -251 0 -91 3 -162 6 -156 4 7 8 6
10 -1 2 -6 2 49 1 121 -2 73 -2 149 0 168 l3 35 32 -55 c17 -30 50 -79 72
-109 l41 -55 0 228 0 228 63 68 c107 116 183 268 213 425 10 50 18 91 20 93 1
2 41 -19 89 -47 223 -128 513 -189 767 -163 197 21 386 81 540 172 38 23 70
40 72 38 1 -1 10 -43 19 -93 32 -158 107 -309 214 -425 l63 -68 2 -228 3 -228
57 85 c31 47 60 92 64 102 16 44 24 6 24 -122 0 -155 -9 -192 -59 -234 -17
-14 -44 -28 -59 -32 -28 -6 -29 -8 -36 -86 -23 -273 -154 -528 -361 -701 l-75
-63 2 -163 3 -163 185 -74 185 -75 415 0 c458 0 488 -3 608 -63 119 -58 234
-185 281 -311 10 -28 53 -225 95 -436 42 -212 80 -393 84 -404 15 -36 339 328
504 564 127 182 280 455 350 625 9 22 28 68 42 102 78 188 193 601 182 655 -4
20 -2 27 6 22 8 -5 9 4 4 32 -4 23 -3 34 2 26 7 -11 41 218 43 293 0 11 3 62
5 113 4 60 2 98 -5 106 -13 16 -4 49 11 40 7 -5 8 27 4 92 -3 55 -9 149 -12
209 -4 61 -9 103 -11 95 -3 -8 -9 -24 -14 -36 -7 -14 -6 -33 5 -65 10 -26 15
-74 14 -119 l-1 -75 -7 67 c-3 38 -10 71 -15 75 -4 5 -5 -14 -2 -42 18 -143
20 -197 7 -205 -10 -6 -11 -16 -1 -51 19 -65 24 -109 14 -109 -5 0 -9 -10 -8
-22 1 -13 -2 -36 -8 -51 -6 -20 -6 -37 2 -54 8 -18 9 -29 1 -37 -5 -5 -10 -40
-10 -77 0 -50 -4 -68 -15 -73 -8 -3 -15 -1 -15 4 0 6 5 10 10 10 6 0 10 5 10
10 0 15 -29 12 -46 -4 -15 -16 -19 -30 -6 -22 5 3 7 -9 4 -27 -3 -25 -1 -29 7
-17 6 8 11 11 11 5 0 -5 10 1 21 15 l20 25 -16 -39 c-8 -21 -15 -40 -15 -42 0
-2 -7 -4 -15 -4 -8 0 -15 -4 -15 -10 0 -5 -7 -10 -15 -10 -8 0 -15 5 -15 10 0
6 7 10 16 10 9 0 14 6 11 13 -2 7 -16 11 -33 9 -25 -3 -39 7 -93 64 -35 38
-59 70 -53 72 23 7 12 22 -17 22 -20 0 -38 10 -58 33 -16 18 -37 36 -46 40 -9
3 -17 13 -17 21 0 8 -8 20 -17 26 -13 8 -14 13 -5 16 22 10 13 24 -16 24 -22
0 -43 15 -92 67 -35 37 -58 69 -52 71 23 7 12 22 -17 22 -20 0 -38 10 -58 33
-16 18 -37 36 -46 40 -9 3 -17 13 -17 21 0 8 -8 20 -17 26 -13 8 -14 13 -5 16
22 10 13 24 -16 24 -22 0 -43 15 -92 67 -35 37 -58 69 -52 71 23 7 12 22 -17
22 -20 0 -38 10 -58 33 -16 18 -37 36 -46 40 -9 3 -17 13 -17 21 0 8 -8 20
-17 26 -13 8 -14 13 -5 16 22 10 13 24 -16 24 -22 0 -43 15 -92 67 -35 37 -58
69 -52 71 23 7 12 22 -17 22 -20 0 -38 10 -58 33 -16 18 -37 36 -46 40 -9 3
-17 13 -17 21 0 8 -8 20 -17 26 -13 8 -14 13 -5 16 22 10 13 24 -16 24 -22 0
-43 15 -92 67 -35 37 -58 69 -52 71 23 7 12 22 -17 22 -20 0 -38 10 -58 33
-16 18 -37 36 -46 40 -9 3 -17 13 -17 21 0 8 -8 20 -17 26 -13 8 -14 13 -5 16
22 10 13 24 -16 24 -22 0 -43 15 -92 67 -35 37 -58 69 -52 71 27 9 10 24 -23
20 -24 -3 -35 0 -35 9 0 7 -9 17 -20 23 -11 6 -20 17 -20 25 0 8 -9 15 -20 15
-11 0 -20 7 -20 15 0 9 -12 27 -27 40 -26 22 -26 24 -5 18 14 -3 22 -1 22 7 0
9 -11 11 -35 7 -29 -5 -35 -3 -35 12 0 10 -9 21 -20 24 -11 3 -20 12 -20 21 0
9 -8 16 -20 16 -11 0 -20 7 -20 15 0 16 -45 65 -60 65 -6 0 -21 18 -35 40 -16
25 -33 40 -45 40 -11 0 -20 4 -20 9 0 4 -24 34 -54 65 -30 31 -50 56 -45 56 6
0 7 5 4 11 -4 6 -14 8 -22 5 -17 -7 -74 47 -120 115 -27 40 -29 46 -15 55 19
12 8 36 -13 28 -8 -4 -13 -10 -10 -14 3 -5 1 -11 -5 -15 -5 -3 -10 0 -11 7 0
7 -2 27 -2 43 -2 25 -6 30 -29 31 -16 1 -28 -3 -28 -8 0 -4 -14 4 -30 19 -20
17 -28 33 -25 44 3 9 0 21 -7 25 -6 4 -14 2 -16 -5 -3 -9 -7 -9 -18 0 -8 6
-23 9 -34 6 -24 -6 -25 -1 -5 20 27 27 -2 87 -30 63 -11 -9 -13 -16 -5 -24 13
-13 13 -36 -1 -36 -5 0 -8 3 -6 8 7 14 -40 47 -74 50 -19 2 -38 8 -44 13 -5 5
-18 9 -30 10 -16 0 -15 2 7 11 24 8 26 12 17 30 -11 20 -11 20 -25 -1 -18 -26
-34 -28 -28 -3 4 14 -2 17 -41 18 -26 1 -50 7 -55 14 -5 7 -16 10 -31 5 -19
-5 -21 -4 -9 5 11 8 6 9 -25 5 -23 -3 -32 -2 -22 3 14 6 7 11 -30 22 -26 7
-50 12 -52 11 -2 -1 -7 2 -10 7 -4 7 -19 7 -41 2 -27 -6 -29 -8 -11 -9 13 -1
22 -3 19 -6 -3 -3 -24 -3 -47 1 -29 5 -38 10 -29 15 7 5 -63 8 -162 8 -115 -1
-166 -4 -150 -10 21 -7 18 -8 -13 -4 -20 2 -36 1 -33 -3 2 -4 -21 -6 -52 -4
-42 2 -53 0 -42 -7 18 -13 1 -14 -19 -2 -10 6 -6 11 15 19 27 10 25 11 -18 9
-29 -1 -48 -7 -48 -14z m887 -89 c-3 -3 -12 -4 -19 -1 -8 3 -5 6 6 6 11 1 17
-2 13 -5z m-1312 -154 c3 -5 1 -10 -4 -10 -6 0 -11 5 -11 10 0 6 2 10 4 10 3
0 8 -4 11 -10z m1720 -120 c3 -6 -1 -7 -9 -4 -18 7 -21 14 -7 14 6 0 13 -4 16
-10z m-2022 -205 c-3 -9 -8 -14 -10 -11 -3 3 -2 9 2 15 9 16 15 13 8 -4z
m-176 -334 c-10 -27 -12 -28 -23 -13 -10 14 -10 18 2 20 8 2 14 8 14 13 0 5 4
9 9 9 5 0 4 -13 -2 -29z m4830 -1683 c-3 -8 -6 -5 -6 6 -1 11 2 17 5 13 3 -3
4 -12 1 -19z"/>
<path d="M5350 8076 c0 -2 7 -6 15 -10 8 -3 15 -1 15 4 0 6 -7 10 -15 10 -8 0
-15 -2 -15 -4z"/>
<path d="M7807 8023 c-13 -12 -7 -33 8 -33 8 0 15 -4 15 -8 0 -5 11 -14 25
-20 25 -12 25 -11 -6 28 -36 45 -33 42 -42 33z"/>
<path d="M4360 7955 c-10 -12 -10 -15 4 -15 9 0 16 7 16 15 0 8 -2 15 -4 15
-2 0 -9 -7 -16 -15z"/>
<path d="M2105 7930 c-3 -5 -3 -15 1 -22 4 -6 3 -8 -3 -5 -6 4 -17 0 -24 -9
-11 -14 -10 -18 6 -30 10 -8 15 -17 12 -21 -4 -3 -13 2 -21 12 -9 13 -15 15
-20 6 -4 -6 -2 -19 5 -27 15 -19 20 -56 6 -47 -6 4 -8 -1 -4 -11 4 -10 1 -19
-8 -22 -22 -9 -18 -34 5 -34 13 0 20 -7 20 -20 0 -16 7 -20 30 -20 28 0 30 2
30 40 0 22 -4 40 -10 40 -6 0 -8 31 -6 80 3 48 0 80 -5 80 -6 0 -7 5 -4 10 3
6 4 10 1 10 -3 0 -8 -4 -11 -10z m15 -190 c0 -13 -7 -20 -20 -20 -19 0 -27 20
-13 33 13 14 33 6 33 -13z"/>
<path d="M7880 7901 c0 -30 4 -41 15 -41 17 0 36 -39 27 -54 -3 -5 0 -6 6 -2
6 3 13 2 17 -4 3 -6 0 -13 -9 -16 -20 -8 -29 -34 -11 -34 8 0 15 7 15 15 0 23
16 18 39 -11 11 -14 24 -23 28 -21 4 3 9 -7 9 -21 1 -15 -1 -21 -3 -14 -9 24
-25 12 -20 -15 3 -15 0 -34 -6 -43 -7 -12 -6 -26 4 -49 18 -39 24 -39 35 2 8
25 16 33 37 35 l28 3 -22 39 c-12 22 -26 37 -31 34 -7 -5 -9 0 -8 21 1 15
-122 185 -130 180 -6 -3 -7 0 -4 8 3 8 1 18 -5 22 -7 4 -11 -8 -11 -34z m60
-52 c0 -6 -4 -7 -10 -4 -5 3 -10 11 -10 16 0 6 5 7 10 4 6 -3 10 -11 10 -16z
m20 -25 c0 -8 -19 -13 -24 -6 -3 5 1 9 9 9 8 0 15 -2 15 -3z m29 -59 c0 -5 -6
-1 -14 9 -8 11 -15 24 -15 30 0 5 7 1 15 -10 8 -10 14 -23 14 -29z"/>
<path d="M4080 7840 c-24 -24 -16 -44 16 -38 21 4 31 35 16 50 -7 7 -17 3 -32
-12z"/>
<path d="M2024 7812 c-31 -42 -36 -52 -25 -52 5 0 12 8 14 18 4 15 5 15 6 0 1
-10 9 -16 20 -15 11 0 17 5 15 9 -3 4 0 16 5 27 8 14 7 22 -2 30 -10 8 -18 4
-33 -17z m30 -7 c-4 -8 -14 -15 -23 -15 -14 1 -13 3 3 15 25 19 27 19 20 0z"/>
<path d="M2200 7820 c0 -13 7 -20 20 -20 13 0 20 -7 20 -20 0 -13 7 -20 20
-20 13 0 20 7 20 20 0 13 -7 20 -20 20 -13 0 -20 7 -20 20 0 13 -7 20 -20 20
-13 0 -20 -7 -20 -20z"/>
<path d="M2167 7823 c-11 -10 -8 -63 3 -63 6 0 10 16 10 35 0 36 -2 40 -13 28z"/>
<path d="M4120 7795 c-10 -12 -10 -15 4 -15 9 0 16 7 16 15 0 8 -2 15 -4 15
-2 0 -9 -7 -16 -15z"/>
<path d="M6004 7771 c4 -5 -3 -7 -14 -4 -14 4 -20 0 -20 -11 0 -10 9 -16 25
-16 18 0 25 5 25 20 0 11 -5 20 -11 20 -5 0 -8 -4 -5 -9z"/>
<path d="M3995 7750 c3 -5 10 -10 16 -10 5 0 9 5 9 10 0 6 -7 10 -16 10 -8 0
-12 -4 -9 -10z"/>
<path d="M1977 7744 c-3 -3 -3 -13 0 -22 4 -10 2 -13 -5 -8 -14 8 -36 -30 -26
-46 4 -7 3 -8 -4 -4 -6 3 -16 -3 -22 -14 -6 -11 -7 -20 -3 -20 4 0 -1 -6 -11
-13 -15 -11 -16 -18 -8 -34 9 -15 8 -20 -3 -20 -8 0 -11 5 -8 11 4 7 3 8 -4 1
-5 -5 -21 -30 -35 -55 l-26 -45 49 3 c37 3 49 8 50 20 3 35 1 58 -6 74 -8 21
16 34 43 23 28 -12 62 -14 62 -4 0 5 -13 9 -29 9 -22 0 -30 5 -33 24 -3 13 -1
31 4 40 6 10 5 16 -1 16 -6 0 -8 7 -4 16 5 15 7 15 15 0 13 -23 27 -11 24 19
-3 28 -10 38 -19 29z"/>
<path d="M6060 7704 c0 -10 -6 -13 -19 -9 -15 4 -20 0 -23 -25 -3 -18 -1 -27
4 -22 14 14 58 -10 58 -32 0 -11 3 -17 6 -13 10 9 -6 117 -17 117 -5 0 -9 -7
-9 -16z"/>
<path d="M3910 7650 c0 -5 9 -10 20 -10 11 0 20 5 20 10 0 6 -9 10 -20 10 -11
0 -20 -4 -20 -10z"/>
<path d="M2200 7620 c0 -13 7 -20 20 -20 13 0 20 7 20 20 0 13 -7 20 -20 20
-13 0 -20 -7 -20 -20z"/>
<path d="M8083 7591 c2 -28 3 -29 15 -14 6 9 12 12 12 5 0 -7 -9 -17 -20 -24
-23 -15 -27 -48 -6 -48 8 0 21 -7 29 -15 8 -8 27 -16 42 -19 l26 -5 -39 72
c-44 80 -62 94 -59 48z"/>
<path d="M2040 7570 c0 -23 4 -30 20 -30 16 0 20 7 20 30 0 23 -4 30 -20 30
-16 0 -20 -7 -20 -30z"/>
<path d="M1960 7480 c0 -22 5 -40 10 -40 6 0 10 18 10 40 0 22 -4 40 -10 40
-5 0 -10 -18 -10 -40z"/>
<path d="M1811 7446 c-1 -10 -9 -25 -18 -33 -10 -8 -12 -12 -5 -8 8 4 12 -1
12 -16 0 -19 -2 -20 -16 -8 -15 12 -16 11 -10 -8 5 -15 -1 -29 -20 -50 -21
-23 -23 -29 -10 -31 9 -2 16 -7 16 -11 0 -4 14 -6 30 -3 30 4 30 5 28 61 -1
31 4 67 11 79 7 13 10 26 7 30 -3 3 -6 -1 -7 -9 0 -8 -4 -6 -9 6 -8 19 -9 19
-9 1z"/>
<path d="M8151 7435 c0 -11 3 -14 6 -7 9 22 33 13 33 -12 0 -13 7 -29 15 -36
26 -22 28 -4 4 38 -25 44 -60 54 -58 17z"/>
<path d="M8213 7353 c9 -2 17 -11 17 -19 0 -8 4 -14 9 -14 15 0 20 -40 6 -53
-7 -8 -11 -25 -8 -40 6 -28 18 -36 25 -15 3 8 9 8 24 0 14 -8 15 -12 4 -12
-13 0 -13 -1 0 -11 11 -8 12 -12 2 -16 -6 -2 -10 -9 -6 -14 3 -5 12 -2 21 7 9
9 12 19 7 22 -5 4 -10 14 -12 22 -2 8 -17 45 -34 83 -25 53 -35 67 -52 66 -17
-1 -18 -2 -3 -6z"/>
<path d="M1681 7179 c-17 -44 -28 -85 -25 -91 4 -7 2 -8 -4 -4 -7 4 -12 3 -12
-3 0 -5 -3 -16 -6 -25 -4 -11 -1 -16 11 -16 9 0 15 6 13 12 -7 19 13 35 38 30
19 -3 22 1 26 39 3 34 0 43 -14 47 -20 5 -23 13 -9 28 9 9 24 64 18 64 -2 0
-18 -36 -36 -81z"/>
<path d="M1880 7180 c0 -53 2 -60 20 -60 18 0 20 7 20 60 0 53 -2 60 -20 60
-18 0 -20 -7 -20 -60z"/>
<path d="M8310 7138 c0 -17 3 -19 9 -10 7 11 10 10 15 -3 10 -28 7 -39 -8 -26
-12 10 -15 6 -21 -20 -4 -19 -3 -34 3 -38 6 -4 13 -23 15 -44 2 -21 8 -41 12
-45 4 -4 4 3 1 15 -5 16 -2 25 13 32 28 16 33 14 21 -8 -5 -11 -10 -31 -10
-45 0 -24 14 -32 44 -27 5 1 3 -5 -4 -14 -7 -8 -10 -18 -6 -22 3 -3 6 -1 6 7
0 10 3 10 15 0 13 -11 -37 144 -80 253 -10 24 -25 21 -25 -5z m80 -167 c0 -6
-4 -13 -10 -16 -5 -3 -10 1 -10 9 0 9 5 16 10 16 6 0 10 -4 10 -9z"/>
<path d="M1606 6984 c-11 -32 -12 -53 -4 -86 12 -55 3 -109 -17 -101 -8 3 -15
14 -15 25 0 12 4 17 12 12 8 -5 9 -2 5 10 -5 11 -3 15 5 10 8 -5 9 -2 5 10 -4
10 -7 27 -8 39 -2 47 -75 -212 -114 -405 -14 -66 -25 -124 -25 -127 0 -4 9
-17 21 -30 l21 -22 14 26 c18 34 18 55 0 55 -9 0 -12 -8 -9 -24 3 -13 0 -27
-6 -30 -6 -4 -11 -4 -12 1 -11 98 -2 136 21 93 6 -11 15 -18 21 -15 11 7 11
-19 3 -92 -7 -51 -22 -72 -26 -35 -1 9 -5 -19 -8 -63 l-6 -80 -2 85 c-2 53 -6
80 -11 71 -7 -11 -10 -10 -18 4 -13 22 -33 -144 -37 -310 -3 -85 -2 -101 3
-55 4 36 9 56 10 45 2 -19 3 -18 11 3 7 15 6 29 -2 42 -10 15 -10 22 0 32 9 9
12 7 12 -10 0 -13 6 -22 15 -22 9 0 15 -9 15 -21 0 -14 5 -19 17 -17 13 2 17
18 20 81 3 49 0 77 -7 77 -15 0 -12 69 4 86 8 8 31 14 50 14 l36 0 0 90 0 90
-35 0 c-32 0 -35 3 -41 38 -9 47 -9 79 0 117 5 23 4 26 -4 15 -8 -11 -9 -5 -4
25 4 22 8 41 9 43 6 7 16 -78 10 -88 -4 -6 7 -10 29 -10 33 0 36 2 36 30 0 23
-4 30 -20 30 -14 0 -20 7 -20 23 0 13 -5 28 -11 34 -14 14 -3 67 11 58 6 -3
10 -17 10 -31 0 -31 23 -32 45 -1 12 15 19 18 22 10 13 -34 23 -6 23 63 0 87
10 104 64 104 20 0 36 5 36 10 0 6 -18 10 -39 10 -22 0 -41 4 -43 10 -1 5 -15
11 -30 12 -32 3 -33 4 -14 50 13 30 13 35 1 35 -8 0 -21 -19 -29 -43z m-99
-416 c-3 -8 -6 -5 -6 6 -1 11 2 17 5 13 3 -3 4 -12 1 -19z m-70 -430 c-3 -8
-6 -5 -6 6 -1 11 2 17 5 13 3 -3 4 -12 1 -19z"/>
<path d="M8431 6852 c-1 -7 -5 -11 -10 -8 -16 10 -32 -22 -29 -55 4 -40 28
-52 28 -15 0 32 16 34 23 4 2 -13 8 -32 11 -43 6 -16 4 -15 -6 3 -16 25 -28
20 -28 -13 0 -18 5 -22 24 -20 21 3 25 -2 29 -33 5 -40 36 -126 36 -102 1 27
-77 305 -78 282z"/>
<path d="M1720 6660 c0 -13 7 -20 20 -20 13 0 20 7 20 20 0 13 -7 20 -20 20
-13 0 -20 -7 -20 -20z"/>
<path d="M8500 6530 c0 -5 -6 -10 -12 -10 -17 0 -18 -141 -2 -161 6 -8 17 -38
25 -66 7 -30 18 -53 26 -53 8 0 13 -13 14 -32 0 -28 2 -30 9 -13 8 19 4 93 -7
125 -2 8 -7 39 -9 69 -5 68 -11 75 -20 22 -4 -22 -10 -41 -15 -41 -13 0 -11
26 6 67 16 37 11 103 -6 103 -5 0 -9 -4 -9 -10z m31 -201 l-9 -44 -1 41 c-1
22 2 44 6 47 12 12 13 1 4 -44z"/>
<path d="M4510 6299 c-150 -60 -110 -279 50 -279 85 0 144 61 142 149 -1 96
-103 165 -192 130z"/>
<path d="M5385 6296 c-80 -35 -111 -128 -69 -208 34 -65 135 -89 202 -48 44
27 75 96 66 146 -12 64 -81 124 -141 124 -15 -1 -42 -7 -58 -14z"/>
<path d="M3754 6000 c0 -52 1 -74 3 -47 2 26 2 68 0 95 -2 26 -3 4 -3 -48z"/>
<path d="M1560 5950 c0 -5 9 -10 20 -10 11 0 20 5 20 10 0 6 -9 10 -20 10 -11
0 -20 -4 -20 -10z"/>
<path d="M1435 5928 c-3 -13 -7 -38 -8 -55 -1 -18 -5 -33 -8 -33 -9 0 -10
-290 -2 -303 4 -6 6 -34 6 -61 -1 -28 1 -43 3 -33 6 18 54 25 54 7 0 -5 5 -10
10 -10 6 0 10 18 10 40 0 22 -4 40 -10 40 -5 0 -10 -9 -10 -20 0 -11 -7 -20
-15 -20 -8 0 -18 0 -22 -1 -4 0 -9 5 -11 13 -3 10 -1 10 6 -1 7 -10 10 5 10
48 0 47 -3 61 -13 57 -13 -5 -13 6 -5 179 2 45 3 47 10 20 5 -21 8 -2 9 63 1
91 -3 113 -14 70z"/>
<path d="M1480 5900 c0 -11 5 -20 10 -20 6 0 10 9 10 20 0 11 -4 20 -10 20 -5
0 -10 -9 -10 -20z"/>
<path d="M3752 5800 c0 -14 2 -19 5 -12 2 6 2 18 0 25 -3 6 -5 1 -5 -13z"/>
<path d="M3790 5788 c0 -4 5 -8 11 -8 5 0 8 -4 4 -9 -11 -18 18 -24 31 -6 12
16 13 16 11 -4 -1 -11 -5 -21 -9 -21 -4 0 -8 -4 -8 -9 0 -5 8 -8 18 -7 9 2 20
-1 23 -6 3 -5 15 -10 27 -11 21 -1 41 -27 22 -27 -6 0 -10 -7 -10 -15 0 -21
22 -65 32 -65 5 0 6 4 3 10 -3 6 1 7 9 4 13 -5 16 3 16 48 l0 55 -39 12 c-22
6 -52 25 -68 41 -25 27 -73 39 -73 18z m106 -66 c-3 -3 -12 0 -19 6 -8 7 -16
10 -19 7 -2 -3 -5 1 -5 9 0 12 4 12 24 -1 13 -9 21 -18 19 -21z"/>
<path d="M1438 5709 c-2 -5 -2 -28 0 -50 3 -30 8 -39 23 -39 10 0 19 -4 19
-10 0 -5 5 -10 10 -10 6 0 10 27 10 60 0 60 0 60 -29 60 -16 0 -31 -5 -33 -11z"/>
<path d="M3821 5603 c-1 -50 3 -83 9 -83 11 0 11 90 0 135 -5 22 -8 7 -9 -52z"/>
<path d="M3971 5564 c-1 -12 -4 -37 -7 -55 -4 -24 -3 -30 4 -20 7 10 14 -1 26
-42 18 -64 20 -87 6 -87 -5 0 -10 -5 -10 -11 0 -6 9 -9 20 -6 16 4 20 0 20
-18 0 -15 -7 -25 -22 -29 -19 -4 -20 -8 -10 -18 11 -11 16 -9 31 11 l18 24 7
-34 c3 -18 2 -37 -4 -43 -21 -21 -11 -38 20 -34 23 3 27 2 19 -8 -7 -9 -6 -19
3 -33 10 -17 10 -25 0 -41 -11 -18 -10 -20 8 -20 11 0 20 -4 20 -9 0 -5 9 -11
20 -14 34 -9 24 34 -26 119 -55 94 -96 194 -119 294 -21 94 -23 100 -24 74z
m157 -409 c12 -19 18 -35 14 -35 -5 0 -14 11 -20 25 -6 14 -16 25 -22 25 -5 0
-10 5 -10 10 0 20 15 9 38 -25z"/>
<path d="M1430 5393 c0 -56 14 -123 22 -111 6 8 7 2 3 -18 -10 -54 63 -397
112 -524 4 -8 5 -18 5 -22 -3 -13 15 -9 27 6 16 19 10 82 -6 79 -7 -2 -10 4
-6 13 4 11 8 12 13 4 4 -6 6 12 5 40 -2 56 -13 70 -57 70 -24 0 -28 4 -28 28
0 15 -4 32 -9 38 -16 16 -16 60 -1 79 20 24 27 154 9 166 -9 5 -9 9 -3 9 7 0
15 11 18 25 5 20 13 25 36 25 29 0 30 1 30 50 0 43 -3 50 -20 50 -13 0 -20 -7
-20 -20 0 -13 -7 -20 -20 -20 -13 0 -20 7 -20 20 0 13 -7 20 -20 20 -13 0 -20
-7 -20 -20 0 -11 -7 -20 -15 -20 -9 0 -15 9 -15 25 0 14 -4 25 -10 25 -5 0
-10 -8 -10 -17z m90 -123 c0 -5 -4 -10 -10 -10 -5 0 -10 5 -10 10 0 6 5 10 10
10 6 0 10 -4 10 -10z m-26 -31 c3 -17 1 -39 -5 -50 -5 -11 -7 -24 -4 -29 3 -6
1 -10 -6 -10 -8 0 -9 14 -4 46 4 32 3 44 -4 39 -12 -7 -15 17 -4 28 13 13 21
7 27 -24z m98 -493 c7 4 8 2 4 -5 -10 -15 -26 -4 -25 17 1 15 2 15 6 -1 2 -9
9 -14 15 -11z"/>
<path d="M8460 5250 c0 -5 5 -10 10 -10 6 0 10 5 10 10 0 6 -4 10 -10 10 -5 0
-10 -4 -10 -10z"/>
<path d="M4070 5130 c0 -5 5 -10 10 -10 6 0 10 5 10 10 0 6 -4 10 -10 10 -5 0
-10 -4 -10 -10z"/>
<path d="M4166 5076 c-7 -29 -8 -37 -2 -33 2 1 13 -7 25 -17 16 -14 25 -16 32
-9 13 13 2 36 -12 28 -5 -3 -6 0 -4 8 3 7 -3 21 -13 31 -19 16 -20 16 -26 -8z"/>
<path d="M1530 5060 c0 -16 7 -20 35 -20 28 0 35 4 35 20 0 16 -7 20 -35 20
-28 0 -35 -4 -35 -20z"/>
<path d="M4243 5005 c0 -8 4 -15 9 -15 4 0 8 4 8 9 0 6 -4 12 -8 15 -5 3 -9
-1 -9 -9z"/>
<path d="M4268 4985 c-4 -4 -4 -14 -1 -22 5 -12 7 -12 14 -1 7 10 9 9 9 -4 0
-9 -4 -18 -10 -20 -6 -2 -6 -8 0 -18 8 -13 10 -12 10 3 0 9 5 17 10 17 6 0 10
-7 10 -15 0 -8 6 -15 13 -15 6 0 25 -12 42 -27 l30 -26 3 -147 4 -146 -25 -11
c-20 -9 -27 -9 -31 0 -2 7 -5 4 -5 -5 -1 -18 -17 -23 -45 -12 -9 3 -13 10 -10
15 3 5 0 9 -5 9 -6 0 -11 -4 -11 -9 0 -5 -10 -11 -22 -13 -17 -2 -22 -9 -20
-25 3 -20 -1 -23 -30 -23 -19 0 -39 -5 -45 -11 -8 -8 -17 -8 -32 1 -23 12 -45
5 -35 -12 3 -5 15 -8 25 -5 10 3 21 2 24 -3 5 -9 -45 -18 -63 -12 -7 2 -12 12
-12 23 0 12 -7 19 -20 19 -15 0 -20 -7 -20 -25 0 -29 -15 -33 -29 -7 -9 16
-36 17 -328 18 -175 1 -302 -2 -283 -6 l35 -7 -42 -3 c-75 -6 -78 -5 -76 8 2
8 -12 12 -48 12 -34 0 -48 -4 -43 -11 8 -14 -14 -29 -43 -29 -32 0 -28 -18 5
-23 25 -4 24 -4 -6 -6 -19 0 -31 -5 -27 -11 6 -10 97 -2 105 10 3 4 14 10 25
13 18 4 18 5 -2 6 -16 1 -21 6 -17 16 4 8 13 15 21 15 8 0 11 -4 8 -10 -4 -6
12 -10 39 -10 33 0 46 -4 46 -14 0 -10 -14 -16 -42 -19 -24 -2 133 -3 348 -3
359 1 394 2 411 19 11 9 22 15 25 12 9 -10 58 17 51 28 -4 6 0 8 11 4 9 -4 41
5 74 20 31 14 63 27 69 29 7 1 33 10 58 19 l45 18 0 163 0 163 -32 22 c-18 13
-34 27 -36 31 -2 4 -8 8 -13 8 -6 0 -20 12 -32 26 -12 14 -25 22 -29 19z
m-204 -557 c-3 -4 -10 -8 -15 -8 -6 0 -7 5 -4 10 3 6 1 10 -4 10 -6 0 -11 5
-11 10 0 6 8 5 19 -2 11 -7 17 -16 15 -20z m-839 2 c-3 -5 -12 -10 -18 -10 -7
0 -6 4 3 10 19 12 23 12 15 0z"/>
<path d="M1591 4701 c-8 -6 -10 -14 -5 -22 5 -8 9 -20 10 -27 4 -25 13 -42 23
-42 5 0 3 20 -4 44 -8 24 -11 47 -8 50 9 9 0 7 -16 -3z"/>
<path d="M1625 4650 c3 -5 8 -10 11 -10 2 0 4 5 4 10 0 6 -5 10 -11 10 -5 0
-7 -4 -4 -10z"/>
<path d="M1660 4630 c0 -5 5 -10 10 -10 6 0 10 5 10 10 0 6 -4 10 -10 10 -5 0
-10 -4 -10 -10z"/>
<path d="M1616 4585 c4 -8 10 -15 15 -15 5 0 8 -3 8 -7 -5 -33 2 -52 19 -47
13 5 14 4 3 -4 -13 -10 -7 -57 7 -48 4 2 8 -7 9 -21 0 -14 5 -28 10 -32 4 -3
10 -15 11 -26 2 -11 8 -21 13 -23 5 -2 9 -12 9 -23 0 -10 5 -19 11 -19 5 0 8
-4 4 -9 -3 -5 3 -17 12 -27 10 -10 17 -19 16 -21 -8 -9 -1 -33 12 -47 9 -8 15
-18 15 -21 -2 -14 105 -206 108 -195 3 9 6 9 12 0 5 -9 8 -5 8 11 0 13 4 36 7
52 6 23 5 26 -9 21 -9 -3 -16 -1 -16 5 0 6 -5 11 -11 11 -5 0 -8 -4 -5 -9 3
-5 -2 -15 -11 -22 -15 -12 -16 -12 -11 3 4 9 1 19 -7 22 -9 3 -12 18 -10 43 2
33 2 34 -4 8 l-7 -30 -8 28 c-5 15 -6 43 -4 62 3 29 2 32 -11 22 -12 -10 -13
-9 -7 1 5 9 2 15 -11 18 -23 6 -43 64 -30 86 6 8 7 27 3 41 -6 24 -9 26 -26
15 -16 -10 -22 -10 -32 1 -10 11 -10 12 0 7 7 -4 12 -2 12 6 0 9 3 9 10 -2 8
-13 10 -12 10 3 0 13 -5 17 -19 12 -15 -4 -20 2 -29 37 -7 26 -7 48 -1 59 12
23 11 29 -4 29 -7 0 -23 14 -37 30 -27 32 -43 39 -34 15z m287 -562 c-3 -7 -6
-13 -8 -13 -2 0 -5 6 -8 13 -3 8 1 14 8 14 7 0 11 -6 8 -14z"/>
<path d="M3002 4385 c-6 -14 -16 -25 -22 -25 -5 0 -10 -6 -10 -12 0 -7 -11
-18 -25 -25 -15 -6 -25 -7 -25 -1 0 5 -5 6 -11 3 -6 -4 -8 -13 -5 -21 5 -13
-6 -18 -26 -15 -5 0 -8 -8 -8 -19 0 -15 -7 -20 -28 -20 -35 0 -45 -9 -30 -27
8 -11 6 -18 -10 -33 -12 -11 -26 -20 -32 -20 -5 0 -10 -5 -10 -11 0 -6 7 -9
14 -6 11 4 13 1 9 -11 -3 -9 5 -2 17 17 12 19 28 40 36 48 8 8 12 19 9 24 -4
5 3 9 13 9 19 0 54 30 36 30 -5 0 6 8 23 16 18 9 30 20 27 25 -3 5 3 9 13 9
10 1 29 8 43 16 14 8 17 13 8 10 -10 -3 -18 0 -18 5 0 7 11 9 25 7 14 -3 28
-1 31 3 3 5 0 9 -6 9 -7 0 -9 8 -5 20 9 30 -19 25 -33 -5z"/>
<path d="M3064 4399 c-3 -6 -1 -15 6 -19 18 -11 50 0 50 18 0 12 -3 13 -12 4
-7 -7 -17 -12 -22 -12 -6 0 -4 5 4 10 13 8 13 10 -2 10 -9 0 -20 -5 -24 -11z"/>
<path d="M1840 4230 c0 -5 5 -10 10 -10 6 0 10 5 10 10 0 6 -4 10 -10 10 -5 0
-10 -4 -10 -10z"/>
<path d="M2750 4120 c0 -6 -4 -9 -9 -5 -6 3 -15 -3 -20 -14 -15 -27 -14 -38 3
-44 10 -4 13 -1 9 9 -3 9 0 14 7 12 15 -4 33 39 20 47 -6 4 -10 1 -10 -5z"/>
<path d="M2710 4020 c0 -32 -1 -33 -15 -14 -14 18 -14 17 -15 -13 0 -28 -3
-31 -24 -27 -22 4 -24 2 -17 -23 5 -18 14 -27 24 -25 10 2 14 -4 13 -15 -2
-10 -11 -18 -22 -18 -12 0 -20 -8 -22 -22 -3 -18 2 -23 17 -23 24 0 26 -13 6
-55 l-14 -30 6 33 c4 21 1 32 -6 32 -13 0 -10 -58 4 -80 5 -8 4 -11 -1 -7 -6
3 -11 -20 -12 -55 -2 -33 -9 -75 -17 -94 -8 -19 -12 -41 -9 -49 4 -8 1 -15 -6
-15 -6 0 -14 9 -17 20 -3 11 -12 20 -19 20 -11 0 -14 -21 -14 -95 0 -52 2 -95
5 -95 3 0 10 10 16 23 9 21 9 21 3 -3 -3 -14 -6 -35 -6 -47 0 -13 -4 -20 -9
-17 -5 3 -9 -15 -9 -40 0 -44 -1 -45 -23 -37 -13 5 -30 5 -37 1 -11 -7 -6 -16
20 -40 36 -34 41 -33 46 7 1 15 10 60 19 98 9 39 20 90 24 115 27 146 112 550
121 574 7 20 8 32 0 40 -7 7 -10 0 -10 -24z m-170 -790 c13 -9 13 -10 0 -10
-13 0 -13 -1 0 -10 8 -5 11 -10 5 -10 -5 0 -17 5 -25 10 -13 9 -13 10 0 10 13
0 13 1 0 10 -8 5 -10 10 -5 10 6 0 17 -5 25 -10z"/>
<path d="M2640 3990 c0 -5 5 -10 11 -10 5 0 7 5 4 10 -3 6 -8 10 -11 10 -2 0
-4 -4 -4 -10z"/>
<path d="M1914 3959 c20 -32 59 -47 54 -21 -2 9 -11 17 -19 17 -9 0 -24 7 -34
15 -18 14 -18 14 -1 -11z"/>
<path d="M1995 3900 c4 -7 -3 -8 -20 -4 l-27 7 17 -27 c10 -14 22 -26 27 -26
6 0 6 5 -1 14 -9 10 -8 15 4 20 17 6 21 26 4 26 -5 0 -7 -5 -4 -10z"/>
<path d="M1995 3830 c3 -5 8 -10 11 -10 2 0 4 5 4 10 0 6 -5 10 -11 10 -5 0
-7 -4 -4 -10z"/>
<path d="M2025 3830 c4 -7 3 -15 -4 -19 -7 -5 5 -29 35 -72 58 -79 67 -90 58
-64 -4 11 -14 26 -23 34 -14 12 -14 13 7 8 15 -3 22 -1 22 9 0 8 -5 14 -11 14
-17 0 -36 24 -33 42 2 17 -12 18 -35 4 -11 -7 -13 -4 -7 17 3 15 1 29 -6 33
-7 5 -8 3 -3 -6z m39 -61 c-3 -5 -10 -7 -15 -3 -5 3 -7 10 -3 15 3 5 10 7 15
3 5 -3 7 -10 3 -15z"/>
<path d="M2143 3627 c15 -13 27 -28 27 -34 0 -7 4 -15 10 -18 6 -3 7 1 4 9 -3
9 -2 16 4 16 6 0 9 -11 8 -25 -2 -15 5 -32 19 -45 l22 -21 -5 27 c-3 19 -1 25
6 20 8 -5 10 -2 6 8 -3 9 -10 16 -15 16 -5 0 -9 7 -9 15 0 8 -9 15 -20 15 -10
0 -23 7 -28 15 -4 9 -19 17 -33 20 l-24 4 28 -22z"/>
<path d="M2556 3604 c-7 -19 0 -34 17 -34 7 0 6 4 -3 11 -11 8 -12 12 -2 16
14 5 16 23 3 23 -5 0 -12 -7 -15 -16z"/>
<path d="M2268 3527 c-29 -23 -3 -82 30 -70 14 5 15 3 4 -8 -10 -11 -5 -20 25
-51 20 -21 46 -38 58 -38 16 0 17 2 5 10 -12 8 -12 10 -1 10 11 0 11 3 1 15
-15 18 -44 21 -34 3 5 -9 2 -9 -9 1 -9 7 -17 19 -17 25 0 7 4 6 9 -2 6 -11 10
-10 15 4 3 9 4 19 1 22 -3 3 -5 1 -5 -4 0 -5 -9 -10 -20 -11 -22 -2 -25 24 -5
40 6 5 -1 5 -13 2 -22 -6 -23 -5 -12 15 12 22 7 50 -7 50 -4 0 -16 -6 -25 -13z
m12 -17 c0 -5 -5 -10 -11 -10 -5 0 -7 5 -4 10 3 6 8 10 11 10 2 0 4 -4 4 -10z
m4 -36 c5 -14 4 -15 -9 -4 -17 14 -19 20 -6 20 5 0 12 -7 15 -16z"/>
<path d="M2438 3374 c-8 -13 25 -48 35 -37 4 3 7 16 7 27 -1 20 -1 20 -14 3
-14 -18 -14 -18 -18 0 -2 11 -6 14 -10 7z"/>
<path d="M2380 3346 c0 -2 7 -9 15 -16 13 -11 14 -10 9 4 -5 14 -24 23 -24 12z"/>
<path d="M2415 3312 c-10 -10 7 -21 23 -15 9 3 14 3 10 -2 -9 -10 10 -47 21
-41 4 3 7 18 6 33 -1 23 -6 28 -28 28 -15 1 -30 -1 -32 -3z"/>
<path d="M0 400 l0 -400 5000 0 5000 0 0 400 0 400 -5000 0 -5000 0 0 -400z
m2192 123 c23 -20 23 -57 1 -74 -15 -11 -16 -11 -5 1 27 31 11 72 -33 83 -19
4 -19 5 -1 6 11 0 28 -6 38 -16z m-69 -8 c-3 -9 -8 -14 -10 -11 -3 3 -2 9 2
15 9 16 15 13 8 -4z m-1760 -114 c22 -61 43 -108 47 -104 4 4 24 56 45 116 21
59 42 107 47 107 11 0 9 -8 -42 -150 -23 -64 -43 -106 -53 -108 -15 -3 -17 0
-67 143 -15 44 -31 88 -36 99 -5 13 -3 17 6 14 8 -2 32 -55 53 -117z m517 89
c0 -23 4 -30 20 -30 11 0 20 -4 20 -10 0 -5 -10 -10 -21 -10 -20 0 -21 -4 -17
-71 3 -55 8 -74 23 -85 23 -17 14 -29 -13 -15 -11 6 -22 25 -26 42 -10 51 -7
209 4 209 6 0 10 -13 10 -30z m515 16 c25 -11 33 -19 29 -30 -7 -19 -5 -19
-40 -1 -37 19 -59 19 -78 0 -24 -24 -10 -40 49 -59 87 -27 108 -75 54 -128
-29 -29 -33 -30 -90 -25 -68 6 -72 8 -63 30 4 12 11 13 35 5 41 -14 96 -2 104
23 8 25 -9 46 -44 54 -52 11 -91 42 -91 72 1 64 60 90 135 59z m105 -16 c0
-25 4 -30 25 -30 16 0 25 -6 25 -15 0 -9 -9 -15 -25 -15 -25 0 -26 -1 -23 -62
3 -54 6 -64 26 -73 12 -5 22 -13 22 -18 0 -17 -31 -18 -55 -3 -24 16 -25 20
-25 131 0 96 3 115 15 115 10 0 15 -10 15 -30z m482 -32 l3 -62 36 32 c20 18
45 32 55 32 14 0 9 -9 -21 -40 l-39 -40 42 -60 c40 -57 41 -60 20 -60 -16 0
-32 14 -53 45 -16 25 -33 45 -37 45 -5 0 -8 -20 -8 -45 0 -38 -3 -45 -20 -45
-19 0 -20 7 -20 130 0 122 1 130 20 130 16 0 19 -8 22 -62z m193 30 c1 -20 -2
-24 -11 -17 -8 7 -14 6 -17 -3 -3 -7 -6 2 -6 20 -1 27 3 33 17 30 11 -2 17
-13 17 -30z m-44 -35 c13 -16 12 -17 -3 -4 -17 13 -22 21 -14 21 2 0 10 -8 17
-17z m-1502 -19 c12 -15 21 -40 21 -55 0 -29 0 -29 -65 -29 -71 0 -78 -7 -49
-49 15 -20 23 -23 65 -19 48 5 65 -4 33 -16 -69 -27 -134 19 -134 95 0 87 82
133 129 73z m191 16 c17 -11 10 -13 -40 -10 -47 2 -75 -28 -75 -80 0 -55 26
-80 82 -80 27 0 42 -4 38 -10 -3 -5 -24 -10 -46 -10 -49 0 -85 32 -94 83 -7
38 13 89 42 106 23 13 73 14 93 1z m271 -19 c23 -23 29 -38 29 -71 0 -53 -42
-100 -90 -100 -48 0 -90 47 -90 100 0 53 42 100 90 100 22 0 41 -9 61 -29z
m79 13 c0 -14 2 -14 22 0 24 17 38 20 38 9 0 -5 -14 -16 -30 -25 -29 -17 -30
-19 -30 -93 0 -43 -4 -75 -10 -75 -6 0 -10 40 -10 100 0 60 4 100 10 100 6 0
10 -7 10 -16z m537 1 c30 -21 44 -75 32 -120 -25 -88 -143 -88 -168 0 -20 72
20 135 84 135 17 0 40 -7 52 -15z m198 -5 c0 -9 -8 -14 -20 -13 -62 8 -98 -40
-75 -97 12 -30 36 -42 75 -37 12 1 20 -4 20 -13 0 -19 -48 -25 -85 -10 -63 26
-68 148 -6 179 31 15 91 9 91 -9z m5474 -83 c8 -26 17 -47 21 -47 4 0 13 21
21 47 8 25 20 48 27 51 8 2 4 -19 -12 -63 -36 -99 -36 -99 -72 0 -16 44 -20
65 -12 63 7 -3 19 -26 27 -51z m638 38 c2 -6 -9 -11 -23 -10 -35 0 -43 -22
-12 -34 70 -26 54 -95 -17 -77 -35 9 -31 24 6 22 45 -2 47 19 5 39 -37 18 -46
41 -24 63 15 15 60 12 65 -3z m333 -20 c0 -35 16 -47 26 -20 4 8 13 15 22 15
13 0 13 -3 -2 -19 -16 -18 -16 -21 -1 -50 19 -38 8 -40 -22 -3 l-22 27 -1 -27
c0 -16 -4 -28 -10 -28 -6 0 -10 30 -10 70 0 40 4 70 10 70 6 0 10 -16 10 -35z
m580 32 c0 -4 -34 -104 -45 -136 -3 -8 -8 -11 -11 -8 -8 7 38 147 48 147 4 0
8 -2 8 -3z m102 -49 c2 -29 2 -61 0 -70 -5 -22 -22 -24 -22 -3 0 10 -10 15
-30 15 -16 0 -30 3 -30 6 0 16 56 104 67 104 6 0 13 -22 15 -52z m118 33 c-5
-11 -15 -23 -20 -26 -6 -4 -2 -14 11 -24 40 -32 1 -82 -51 -66 -31 10 -23 25
10 19 22 -5 31 -2 36 11 6 16 -3 28 -31 39 -6 2 -5 9 3 17 18 19 15 29 -8 29
-11 0 -20 5 -20 10 0 6 18 10 40 10 37 0 40 -2 30 -19z m110 0 c-5 -11 -15
-23 -20 -26 -6 -4 -1 -14 12 -25 20 -15 21 -21 10 -44 -11 -26 -34 -32 -66
-20 -28 11 -17 24 14 18 22 -5 31 -2 36 11 6 16 -3 28 -31 39 -6 2 -5 9 3 17
18 19 15 29 -8 29 -11 0 -20 5 -20 10 0 6 18 10 40 10 37 0 40 -2 30 -19z
m110 0 c-5 -11 -15 -23 -20 -26 -6 -4 -1 -14 12 -25 20 -15 21 -21 10 -44 -11
-26 -34 -32 -66 -20 -28 11 -17 24 14 18 22 -5 31 -2 36 11 6 16 -3 28 -31 39
-6 2 -5 9 3 17 18 19 15 29 -8 29 -11 0 -20 5 -20 10 0 6 18 10 40 10 37 0 40
-2 30 -19z m114 -3 c44 -63 -17 -154 -68 -102 -9 9 -16 32 -16 54 0 64 52 94
84 48z m108 5 c39 -35 8 -122 -44 -123 -10 0 -18 5 -18 10 0 6 9 10 20 10 10
0 24 10 31 22 10 18 9 20 -6 15 -24 -10 -55 10 -55 36 0 44 38 61 72 30z m128
12 c0 -6 -60 -127 -66 -134 -2 -2 -7 -2 -10 1 -3 3 6 29 20 57 14 28 26 53 26
56 0 3 -13 5 -30 5 -16 0 -30 5 -30 10 0 6 20 10 45 10 25 0 45 -2 45 -5z
m-2000 -40 c9 -10 9 -15 1 -15 -15 0 -14 -57 2 -63 6 -2 9 -7 6 -11 -15 -17
-37 8 -41 47 -7 58 5 74 32 42z m360 0 c9 -10 9 -15 1 -15 -15 0 -14 -57 2
-63 6 -2 9 -7 6 -11 -15 -16 -37 8 -41 44 -5 60 6 76 32 45z m-532 -7 c23 -23
13 -38 -24 -38 -46 0 -41 -23 7 -30 27 -4 30 -7 16 -13 -42 -16 -77 6 -77 48
0 37 52 59 78 33z m109 5 c14 -6 10 -9 -17 -13 -29 -4 -35 -9 -35 -30 0 -21 5
-26 33 -28 36 -4 34 -22 -3 -22 -28 0 -55 24 -55 50 0 22 25 50 45 50 7 0 22
-3 32 -7z m177 -9 c31 -30 9 -84 -34 -84 -24 0 -50 26 -50 50 0 24 26 50 50
50 10 0 26 -7 34 -16z m86 6 c0 -4 -7 -10 -15 -14 -9 -3 -15 -19 -15 -41 0
-19 -4 -35 -10 -35 -5 0 -10 22 -10 49 0 45 2 49 25 49 14 0 25 -4 25 -8z
m274 -6 c31 -30 9 -84 -34 -84 -24 0 -50 26 -50 50 0 24 26 50 50 50 10 0 26
-7 34 -16z m113 9 c14 -6 10 -9 -17 -13 -29 -4 -35 -9 -35 -30 0 -21 5 -26 33
-28 36 -4 34 -22 -3 -22 -28 0 -55 24 -55 50 0 22 25 50 45 50 7 0 22 -3 32
-7z m258 -2 c3 -5 -9 -11 -27 -13 -28 -2 -33 -7 -33 -28 0 -21 5 -26 33 -28
36 -4 34 -22 -3 -22 -28 0 -55 24 -55 50 0 37 67 69 85 41z m97 -8 c22 -20 23
-41 1 -65 -20 -22 -46 -23 -67 -2 -30 29 -9 84 31 84 9 0 25 -7 35 -17z m115
5 c7 -5 14 -5 18 2 10 16 42 12 49 -6 10 -25 7 -84 -4 -84 -5 0 -10 18 -10 41
0 33 -3 40 -17 37 -13 -2 -19 -14 -21 -41 -4 -50 -22 -47 -22 4 0 36 -2 40
-22 37 -19 -2 -24 -10 -26 -40 -5 -55 -22 -46 -22 10 0 48 0 49 33 49 17 0 37
-4 44 -9z m-327 -78 c0 -5 -4 -10 -10 -10 -5 0 -10 5 -10 10 0 6 5 10 10 10 6
0 10 -4 10 -10z"/>
<path d="M2150 500 c0 -5 5 -10 10 -10 6 0 10 5 10 10 0 6 -4 10 -10 10 -5 0
-10 -4 -10 -10z"/>
<path d="M536 418 c-28 -39 -21 -48 39 -48 48 0 55 3 55 19 0 48 -67 68 -94
29z"/>
<path d="M986 424 c-50 -50 -21 -144 44 -144 48 0 80 50 66 104 -13 53 -75 75
-110 40z"/>
<path d="M1616 408 c-32 -46 -8 -118 39 -118 28 0 55 34 55 70 0 36 -27 70
-55 70 -13 0 -31 -10 -39 -22z"/>
<path d="M8987 350 c-18 -29 -18 -30 2 -30 17 0 21 6 21 30 0 17 -1 30 -3 30
-1 0 -11 -13 -20 -30z"/>
<path d="M9424 365 c-9 -38 3 -75 26 -75 13 0 22 9 26 25 9 38 -3 75 -26 75
-13 0 -22 -9 -26 -25z"/>
<path d="M9544 375 c-7 -18 3 -35 21 -35 18 0 26 15 19 34 -8 20 -33 21 -40 1z"/>
<path d="M7490 340 c0 -5 11 -10 25 -10 14 0 25 5 25 10 0 6 -11 10 -25 10
-14 0 -25 -4 -25 -10z"/>
<path d="M7774 336 c-10 -26 4 -48 28 -44 17 2 23 10 23 28 0 18 -6 26 -23 28
-13 2 -25 -3 -28 -12z"/>
<path d="M8134 336 c-10 -26 4 -48 28 -44 17 2 23 10 23 28 0 18 -6 26 -23 28
-13 2 -25 -3 -28 -12z"/>
<path d="M8604 336 c-10 -26 4 -48 28 -44 17 2 23 10 23 28 0 18 -6 26 -23 28
-13 2 -25 -3 -28 -12z"/>
</g>
</svg>
